<svg version="1.1" id="Layer_1" xmlns="http://www.w3.org/2000/svg" xmlns:xlink="http://www.w3.org/1999/xlink" x="px" y="px" style="enable-background:new 0 0 60 60;" xml:space="preserve" viewBox="3.48 7.77 53.03 44.48">
<style type="text/css">
	.st0{fill:#010101;}
</style>
<g>
	<path class="st0" d="M11.06,26.1c-1.52-2.66-3.05-5.32-4.57-7.98c-0.22-0.38-0.44-0.76-0.65-1.14c-0.75-1.31-2.77-0.13-2.02,1.18   c1.52,2.66,3.05,5.32,4.57,7.98c0.22,0.38,0.44,0.76,0.65,1.14C9.79,28.59,11.82,27.41,11.06,26.1L11.06,26.1z"/>
</g>
<g>
	<path class="st0" d="M17.56,22.36c-0.95-2.84-1.91-5.67-2.86-8.51c-0.13-0.4-0.27-0.8-0.4-1.19c-0.2-0.6-0.81-0.99-1.44-0.82   c-0.58,0.16-1.02,0.84-0.82,1.44c0.95,2.84,1.91,5.67,2.86,8.51c0.13,0.4,0.27,0.8,0.4,1.19c0.2,0.6,0.81,0.99,1.44,0.82   C17.33,23.64,17.76,22.96,17.56,22.36L17.56,22.36z"/>
</g>
<g>
	<path class="st0" d="M24.44,20.22c-0.53-3.04-1.06-6.08-1.6-9.13c-0.08-0.43-0.15-0.86-0.23-1.29c-0.11-0.62-0.87-0.97-1.44-0.82   c-0.66,0.18-0.93,0.81-0.82,1.44c0.53,3.04,1.06,6.08,1.6,9.13c0.08,0.43,0.15,0.86,0.23,1.29c0.11,0.62,0.87,0.97,1.44,0.82   C24.28,21.48,24.55,20.85,24.44,20.22L24.44,20.22z"/>
</g>
<g>
	<path class="st0" d="M31.19,20.22c0-3.31,0-6.61,0-9.92c0-0.46,0-0.93,0-1.39c0-1.51-2.34-1.51-2.34,0c0,3.31,0,6.61,0,9.92   c0,0.46,0,0.93,0,1.39C28.85,21.73,31.19,21.73,31.19,20.22L31.19,20.22z"/>
</g>
<g>
	<path class="st0" d="M37.6,21.06c0.57-3.11,1.15-6.22,1.72-9.34c0.08-0.44,0.16-0.89,0.25-1.33c0.11-0.62-0.17-1.26-0.82-1.44   c-0.57-0.16-1.32,0.19-1.44,0.82c-0.57,3.11-1.15,6.22-1.72,9.34c-0.08,0.44-0.16,0.89-0.25,1.33c-0.11,0.62,0.17,1.26,0.82,1.44   C36.73,22.03,37.49,21.68,37.6,21.06L37.6,21.06z"/>
</g>
<g>
	<path class="st0" d="M44.72,23.1c0.98-2.92,1.96-5.83,2.94-8.75c0.14-0.42,0.28-0.84,0.42-1.25c0.2-0.6-0.23-1.28-0.82-1.44   c-0.64-0.18-1.24,0.22-1.44,0.82c-0.98,2.92-1.96,5.83-2.94,8.75c-0.14,0.42-0.28,0.84-0.42,1.25c-0.2,0.6,0.23,1.28,0.82,1.44   C43.92,24.1,44.52,23.71,44.72,23.1L44.72,23.1z"/>
</g>
<g>
	<path class="st0" d="M50.76,27.28c1.48-2.6,2.96-5.2,4.45-7.8c0.21-0.36,0.42-0.73,0.62-1.09c0.75-1.31-1.27-2.49-2.02-1.18   c-1.48,2.6-2.96,5.2-4.45,7.8c-0.21,0.36-0.42,0.73-0.62,1.09C48,27.41,50.02,28.59,50.76,27.28L50.76,27.28z"/>
</g>
<g>
	<path class="st0" d="M56.14,40.29c-1.49-1.68-3.18-3.2-4.9-4.64c-3.73-3.11-7.83-5.82-12.38-7.56c-2.36-0.9-4.84-1.5-7.37-1.66   c-0.48-0.06-0.98-0.08-1.47-0.08c-0.75,0-1.48,0.06-2.2,0.19c-1.49,0.17-2.97,0.5-4.41,0.93c-4.76,1.45-9.13,4.05-13.06,7.07   c-2.25,1.73-4.48,3.57-6.4,5.66c-0.03,0.03-0.06,0.06-0.09,0.1c-0.48,0.52-0.51,1.33,0,1.84c0.48,0.48,1.36,0.52,1.84,0   c1.51-1.63,3.21-3.12,4.93-4.52c0.19-0.15,0.37-0.3,0.56-0.45c0.09-0.07,0.18-0.14,0.27-0.21c0.05-0.04,0.1-0.08,0.16-0.12   c0.01-0.01,0.07-0.05,0.11-0.08c0.06-0.04,0.16-0.12,0.19-0.14c0.11-0.08,0.22-0.17,0.33-0.25c0.22-0.17,0.45-0.33,0.68-0.5   c0.94-0.68,1.9-1.33,2.88-1.95c1.04-0.65,2.1-1.26,3.19-1.82c0.15-0.08,0.3-0.15,0.45-0.23c-1.48,2.1-2.35,4.67-2.35,7.43   c0,7.13,5.8,12.93,12.93,12.93s12.93-5.8,12.93-12.93c0-2.89-0.95-5.55-2.55-7.71c0.89,0.43,1.77,0.9,2.63,1.41   c1.02,0.6,2.01,1.23,2.97,1.91c0.45,0.31,0.9,0.64,1.34,0.97c0.11,0.08,0.22,0.17,0.33,0.25c0.03,0.02,0.13,0.1,0.18,0.14   c0.05,0.04,0.21,0.16,0.24,0.18c0.12,0.09,0.23,0.18,0.35,0.28c2.06,1.64,3.96,3.44,5.78,5.34c0.03,0.03,0.05,0.06,0.08,0.09   c0.47,0.53,1.36,0.48,1.84,0C56.66,41.61,56.6,40.82,56.14,40.29z M30.02,49.53c-2.39,0-4.59-0.82-6.34-2.2   c-2.41-1.87-3.96-4.79-3.96-8.06c0-4.82,3.35-8.86,7.87-9.95c0.78-0.19,1.59-0.29,2.42-0.29c0,0,0.01,0,0.01,0c0,0,0.01,0,0.01,0   c5.7,0,10.31,4.58,10.31,10.24c0,4.26-2.62,7.91-6.35,9.45C32.78,49.25,31.43,49.53,30.02,49.53z"/>
</g>
</svg>